<svg width="20" height="20" viewBox="0 0 20 20" fill="none" xmlns="http://www.w3.org/2000/svg">
<path d="M6 3C5.20435 3 4.44129 3.31607 3.87868 3.87868C3.31607 4.44129 3 5.20435 3 6V14C3 14.7956 3.31607 15.5587 3.87868 16.1213C4.44129 16.6839 5.20435 17 6 17H14C14.7956 17 15.5587 16.6839 16.1213 16.1213C16.6839 15.5587 17 14.7956 17 14V6C17 5.20435 16.6839 4.44129 16.1213 3.87868C15.5587 3.31607 14.7956 3 14 3H6ZM4 6C4 5.46957 4.21071 4.96086 4.58579 4.58579C4.96086 4.21071 5.46957 4 6 4H14C14.5304 4 15.0391 4.21071 15.4142 4.58579C15.7893 4.96086 16 5.46957 16 6V14C16 14.5304 15.7893 15.0391 15.4142 15.4142C15.0391 15.7893 14.5304 16 14 16H6C5.46957 16 4.96086 15.7893 4.58579 15.4142C4.21071 15.0391 4 14.5304 4 14V6ZM13.354 8.354C13.4479 8.26011 13.5006 8.13278 13.5006 8C13.5006 7.86722 13.4479 7.73989 13.354 7.646C13.2601 7.55211 13.1328 7.49937 13 7.49937C12.8672 7.49937 12.7399 7.55211 12.646 7.646L9 11.293L7.354 9.646C7.30751 9.59951 7.25232 9.56264 7.19158 9.53748C7.13084 9.51232 7.06574 9.49937 7 9.49937C6.93426 9.49937 6.86916 9.51232 6.80842 9.53748C6.74768 9.56264 6.69249 9.59951 6.646 9.646C6.59951 9.69249 6.56264 9.74768 6.53748 9.80842C6.51232 9.86916 6.49937 9.93426 6.49937 10C6.49937 10.0657 6.51232 10.1308 6.53748 10.1916C6.56264 10.2523 6.59951 10.3075 6.646 10.354L8.646 12.354C8.69245 12.4006 8.74762 12.4375 8.80837 12.4627C8.86911 12.4879 8.93423 12.5009 9 12.5009C9.06577 12.5009 9.13089 12.4879 9.19163 12.4627C9.25238 12.4375 9.30755 12.4006 9.354 12.354L13.354 8.354Z" fill="black"/>
</svg>
