<svg width="15" height="19" viewBox="0 0 15 19" fill="none" xmlns="http://www.w3.org/2000/svg">
<path d="M1.48566 5.5109C1.20946 3.70784 2.4921 2.08824 4.45149 1.49487C4.7992 1.3895 5.17436 1.41949 5.50053 1.57874C5.82671 1.73799 6.07935 2.01451 6.20699 2.35197L6.83601 4.01457C6.93728 4.28203 6.95559 4.57339 6.8886 4.85125C6.8216 5.1291 6.67237 5.38078 6.46004 5.57397L4.58886 7.2724C4.49663 7.35629 4.4279 7.46245 4.38938 7.5805C4.35086 7.69856 4.34386 7.8245 4.36907 7.94604L4.38642 8.02057L4.43124 8.2069C4.66395 9.11222 5.01852 9.98238 5.48541 10.794C5.994 11.6564 6.62516 12.4417 7.35948 13.1259L7.41732 13.1775C7.51074 13.2597 7.62404 13.3165 7.74619 13.3423C7.86834 13.3682 7.99517 13.3623 8.11432 13.3251L10.5335 12.5698C10.8085 12.4842 11.1029 12.482 11.3791 12.5635C11.6553 12.645 11.9007 12.8064 12.0837 13.027L13.229 14.4044C13.7062 14.9777 13.6483 15.8205 13.1003 16.3264C11.6007 17.7124 9.53867 17.9962 8.10419 16.8538C6.34585 15.448 4.86354 13.7335 3.73136 11.7958C2.58999 9.85966 1.82904 7.72736 1.48566 5.5109ZM5.88596 8.04064L7.43612 6.63029C7.86102 6.24408 8.15977 5.74081 8.29401 5.18508C8.42825 4.62936 8.39186 4.04656 8.18951 3.51149L7.56193 1.84889C7.30503 1.16987 6.79659 0.613489 6.1402 0.293121C5.48382 -0.027247 4.72889 -0.0874944 4.02924 0.124655C1.59556 0.862792 -0.358049 3.0256 0.0555194 5.72733C0.344728 7.61352 1.01135 10.0128 2.48198 12.5182C3.70347 14.6075 5.30242 16.4561 7.19897 17.9718C9.35068 19.6846 12.2225 19.0998 14.0879 17.377C14.6217 16.8844 14.9457 16.2085 14.9938 15.4872C15.0419 14.7659 14.8105 14.0536 14.3468 13.4957L13.2015 12.1169C12.8351 11.6761 12.3443 11.3539 11.7919 11.1915C11.2395 11.029 10.6508 11.0339 10.1012 11.2053L8.09263 11.8317C7.57403 11.3017 7.11978 10.7134 6.73913 10.0788C6.37143 9.43716 6.08489 8.75312 5.88596 8.04207V8.04064Z" fill="black"/>
</svg>
